<?xml version="1.0" encoding="utf-8"?>
<!-- Generator: Adobe Illustrator 21.0.0, SVG Export Plug-In . SVG Version: 6.00 Build 0)  -->
<svg version="1.1" id="Layer_1" xmlns="http://www.w3.org/2000/svg" xmlns:xlink="http://www.w3.org/1999/xlink" x="0px" y="0px"
	 viewBox="0 0 512 512" enable-background="new 0 0 512 512" xml:space="preserve">
<text transform="matrix(1 0 0 1 45.5801 474.7207)" fill="#4CAF50" font-family="'ArialMT'" font-size="47.7534px">EXISTING MEMBER</text>
<g>
	<g>
		<g>
			<circle fill="#5A6672" cx="158.9" cy="95.6" r="25.6"/>
			<path fill="#5A6672" d="M158.9,328L158.9,328c-35.9,0-65.2-29.3-65.2-65.2v-65.2c0-35.9,29.3-65.2,65.2-65.2h0
				c35.9,0,65.2,29.3,65.2,65.2v65.2C224.1,298.7,194.7,328,158.9,328z"/>
		</g>
		<g>
			<circle fill="#5A6672" cx="378.1" cy="95.6" r="25.6"/>
			<path fill="#5A6672" d="M378.1,328L378.1,328c-35.9,0-65.2-29.3-65.2-65.2v-65.2c0-35.9,29.3-65.2,65.2-65.2h0
				c35.9,0,65.2,29.3,65.2,65.2v65.2C443.3,298.7,413.9,328,378.1,328z"/>
		</g>
		<g>
			<circle fill="#5A6672" cx="269.5" cy="57.9" r="34.9"/>
			<path fill="#5A6672" d="M269.5,375L269.5,375c-48.9,0-89-40-89-89v-89c0-48.9,40-89,89-89h0c48.9,0,89,40,89,89v89
				C358.5,335,318.5,375,269.5,375z"/>
		</g>
		<g>
			<circle fill="#5A6672" cx="269.5" cy="57.9" r="34.9"/>
			<path fill="#5A6672" d="M269.5,375L269.5,375c-48.9,0-89-40-89-89v-89c0-48.9,40-89,89-89h0c48.9,0,89,40,89,89v89
				C358.5,335,318.5,375,269.5,375z"/>
		</g>
		<g>
			<circle fill="#5A6672" cx="269.5" cy="57.9" r="34.9"/>
			<path fill="#5A6672" d="M269.5,375L269.5,375c-48.9,0-89-40-89-89v-89c0-48.9,40-89,89-89h0c48.9,0,89,40,89,89v89
				C358.5,335,318.5,375,269.5,375z"/>
		</g>
		<g>
			<path fill="#5A6672" d="M316.1,197.6v65.2c0,26.2,15.6,48.9,38,59.2c4.9-11,7.7-23.2,7.7-35.9v-89c0-19.8-6.6-38.1-17.6-53
				C327.2,155.9,316.1,175.5,316.1,197.6z"/>
			<path fill="#5A6672" d="M222.9,197.6v65.2c0,26.2-15.6,48.9-38,59.2c-4.9-11-7.7-23.2-7.7-35.9v-89c0-19.8,6.6-38.1,17.6-53
				C211.7,155.9,222.9,175.5,222.9,197.6z"/>
			<g>
				<circle fill="#5A6672" cx="269.5" cy="57.9" r="34.9"/>
				<path fill="#5A6672" d="M269.5,375L269.5,375c-48.9,0-89-40-89-89v-89c0-48.9,40-89,89-89h0c48.9,0,89,40,89,89v89
					C358.5,335,318.5,375,269.5,375z"/>
			</g>
		</g>
	</g>
</g>
</svg>
