<?xml version="1.0" encoding="utf-8"?>
<!-- Generator: Adobe Illustrator 21.0.0, SVG Export Plug-In . SVG Version: 6.00 Build 0)  -->
<svg version="1.1" id="Layer_1" xmlns="http://www.w3.org/2000/svg" xmlns:xlink="http://www.w3.org/1999/xlink" x="0px" y="0px"
	 viewBox="0 0 512 512" enable-background="new 0 0 512 512" xml:space="preserve">
<g>
	<circle fill="#5A6672" cx="269.2" cy="185.4" r="21.3"/>
	<path fill="#5A6672" d="M269.2,379.3L269.2,379.3c-29.9,0-54.4-24.5-54.4-54.4v-54.4c0-29.9,24.5-54.4,54.4-54.4h0
		c29.9,0,54.4,24.5,54.4,54.4v54.4C323.6,354.8,299.1,379.3,269.2,379.3z"/>
</g>
<g>
	<path fill="#4CAF50" d="M269.2,23.8c-60.4,0-109.4,52.4-109.4,130.9l9.8,11.3l19.1-24.2l20.1,24.2l21.1-24.2l18.6,24.2l20.1-24.2
		l19.6,24.2l20.6-24.2l20.1,24.2l19.1-24.2l19.6,24.2l10.8-11.3C378.6,76.1,329.6,23.8,269.2,23.8z"/>
	<path fill="#4CAF50" d="M269.2,418.6c-60.4,0-109.4-52.4-109.4-130.9l9.8-11.3l19.1,24.2l20.1-24.2l21.1,24.2l18.6-24.2l20.1,24.2
		l19.6-24.2l20.6,24.2l20.1-24.2l19.1,24.2l19.6-24.2l10.8,11.3C378.6,366.2,329.6,418.6,269.2,418.6z"/>
</g>
<text transform="matrix(1 0 0 1 132.377 474.7207)" fill="#4CAF50" font-family="'Code-Bold'" font-size="47.7534px">NEW MEMBER</text>
</svg>
